<?xml version="1.0" encoding="utf-8"?>
<!-- Generator: Adobe Illustrator 21.1.0, SVG Export Plug-In . SVG Version: 6.00 Build 0)  -->
<svg version="1.1"
	 id="svg2" inkscape:version="0.92.1 r15371" sodipodi:docname="koyao-map.svg" xmlns:cc="http://creativecommons.org/ns#" xmlns:dc="http://purl.org/dc/elements/1.1/" xmlns:inkscape="http://www.inkscape.org/namespaces/inkscape" xmlns:rdf="http://www.w3.org/1999/02/22-rdf-syntax-ns#" xmlns:sodipodi="http://sodipodi.sourceforge.net/DTD/sodipodi-0.dtd" xmlns:svg="http://www.w3.org/2000/svg"
	 xmlns="http://www.w3.org/2000/svg" xmlns:xlink="http://www.w3.org/1999/xlink" x="0px" y="0px" viewBox="0 0 796 845"
	 style="enable-background:new 0 0 796 845;" xml:space="preserve">
<style type="text/css">
	.st0{fill:#F6F6F6;}
</style>
<sodipodi:namedview  bordercolor="#666666" borderopacity="1" gridtolerance="10" guidetolerance="10" id="namedview4" inkscape:current-layer="svg2" inkscape:cx="398" inkscape:cy="422.5" inkscape:pageopacity="0" inkscape:pageshadow="2" inkscape:window-height="1017" inkscape:window-maximized="1" inkscape:window-width="1920" inkscape:window-x="-8" inkscape:window-y="-8" inkscape:zoom="0.27928994" objecttolerance="10" pagecolor="#ffffff" showgrid="false">
	</sodipodi:namedview>
<path id="path12" inkscape:connector-curvature="0" class="st0" d="M511.3,802.3c-4.5-3.9-4.5-3.9-9.8-2.5
	c-14.7,3.9-25.9,3.6-33.1-1c-1.2-0.8-3.6-1.7-5.4-2c-2.1-0.4-3.3-1.3-3.3-2.3c0-0.9-0.6-2.7-1.3-4c-1.2-2.1-0.9-3.7,2.1-13
	c1.9-5.8,4.8-15.1,6.3-20.6c1.6-5.5,3.6-10.7,4.5-11.7c1.3-1.5,1.5-3.6,1-13.6c-0.3-6.5-0.6-13.2-0.7-14.8
	c-0.3-9-9.7-27.8-15.4-30.8c-1.6-0.9-7.2-5.9-12.3-11.2c-10.9-11.4-14.6-13.5-19.8-11.7c-8,2.9-12.7,1.6-14.4-4.1
	c-3.5-11.8-5-13.1-10.8-9.3c-3,2-5.1,2.4-10.3,2.4c-10.2,0-14.5,2.4-20.4,11.3c-2.7,4.1-7.4,10.1-10.5,13.4c-3.1,3.3-6.4,7.4-7.3,9
	c-7.5,12.7-14.9,14.8-18.7,5.5c-0.7-1.8-2.2-3.2-3.4-3.5c-1.2-0.2-5.7-1.1-10.1-1.9c-5-1-8.4-1.2-9.1-0.6c-3.4,2.9-11.6-1.1-20.4-10
	c-11.8-11.8-14.1-13.4-24.9-16.5c-12-3.4-17.9-7.4-28.1-18.9c-21.9-24.7-27.7-30.5-31.9-31.8c-2.2-0.7-6.3-3.9-10.6-8.3
	c-3.9-3.9-9.5-9-12.5-11.3c-7-5.2-17.2-15-19.4-18.6c-1.3-2.1-2.5-2.8-5-2.8c-3.6,0-6.9-2.8-8.2-7c-0.4-1.4-1.8-4.2-3.2-6.3
	s-3.3-6.7-4.4-10.3c-1.8-5.8-2.2-6.4-4.7-6.5c-3.5,0-7-2.5-4.7-3.3c2.9-1.1,1.8-5.2-2-6.9c-3.6-1.7-4-2.4-2.7-4.3
	c2.3-3.5,13.5-0.7,20.4,5.1c5.2,4.4,11.9,7.2,20.2,8.6c7.9,1.3,7.9,1.3,16.4,9.1c18.4,17.1,49.5,23.2,61.4,12.1
	c4.1-3.8,7.5-2,12.4,6.8c6.7,11.9,18,15.2,30.4,8.9c5-2.6,5.8-2.5,6.6,0.5c1.4,5.5,7.4,9,9.5,5.6c2.5-4.1,2.4-4.3-1.1-3.6
	c-2.6,0.6-3.2,0.2-5.5-3.4c-2.9-4.7-3.6-4.8-10.5-2.1c-11.6,4.6-26.2-1.6-28.5-12.1c-0.4-1.7-2-4.6-3.7-6.5c-3.5-4-2.8-7.9,1.9-10.9
	c3.7-2.4,6.3-7.5,6.3-12.2c0-6.3,3-9.1,6.9-6.4c1.5,1.1,6.3,3.4,10.5,5.1c4.3,1.7,9.5,4,11.6,5c5.3,2.7,11.4,3.6,12.8,1.9
	c0.6-0.7,2.1-2.6,3.4-4.1c1.9-2.3,3.1-2.8,7.2-2.9c8.2-0.1,26.3-19.5,27.9-29.8c0.4-2.5,2.7-8.3,5.2-13c5-9.4,7.2-21,5.4-28
	c-0.5-1.9-1.4-5.3-1.9-7.5c-1.3-5.1-1.4-16-0.1-20.6c0.6-2.2,0.7-6.2,0.1-10.6c-0.5-4.4-0.5-8.7,0.1-11.4c0.5-2.4,1.1-7.3,1.3-10.9
	c0.5-10.7,4.3-16.1,12.5-17.5c2.8-0.5,4.5-1.5,5.7-3.3c1-1.5,4.2-5,7.2-7.8c5.5-5.1,5.5-5.1,4.2-11.5c-0.7-3.5-1.3-7.4-1.4-8.7
	s-0.4-2.3-0.6-2.3c-0.9,0-0.4-8.5,0.8-12c5.1-15.8,5.4-16.9,4.3-20.9c-1.3-4.9-1.3-4.9,7.8-20c6.2-10.4,7.3-12.8,6.9-15.6
	c-0.4-2.5-0.1-3.5,1.5-4.5c1.1-0.7,2.4-2.6,3-4.2c0.8-2.2,3.1-4.2,9-7.7c4.4-2.6,9.1-5.8,10.5-7s5.1-3.6,8.3-5.2
	c5.1-2.6,6.3-3.8,9.1-9c2.9-5.5,10.3-13.6,18.5-20.4c1.7-1.4,4.6-4.8,6.5-7.5c2.3-3.3,5.1-5.8,8.6-7.6c2.9-1.5,7.5-5,10.2-7.9
	s8-8.1,11.7-11.7c7.3-7.1,14.5-17.4,16.4-23.3c3.1-9.5,10.5-17.7,16.2-17.7c4.1,0,5.8-2.3,3.5-4.9c-1.8-2.1-1-4.1,1.6-4.1
	c2.2,0,4.7-2.6,4.7-5c0-0.8,1.4-3.5,3-6c1.8-2.8,3-5.8,3-7.9c0-1.9,0.5-5.1,1.2-7.2c0.8-2.7,0.8-4.2,0.1-5.1
	c-0.7-0.8-0.8-3.1-0.3-6.3c0.4-2.8,0.6-6.4,0.3-8.1c-0.3-1.8,0.2-4.4,1.2-6.3c1.2-2.3,1.5-4.4,1-7.6c-0.9-6.3,0-8.4,4.2-9.1
	c3.9-0.7,8.4,0.8,8.4,2.8c0,0.7,1.6,4.9,3.5,9.3c4.1,9.4,4.5,15.1,1.4,20.2c-5.8,9.3,3.8,19,14.6,14.9c5.2-2,10.3-8.1,12-14.4
	c1.3-5,6-13.1,7.5-13.1c1,0,3-6.3,3-9.5c0-1.3-1.6-3-4.6-4.9c-17.8-11.2-12.8-34,7.1-32.2c4.6,0.4,8.2,0.3,9.4-0.4
	c2.5-1.3,4.7-0.5,5.4,2c0.9,3.3,4.3,2.3,6.4-1.8c1.4-2.9,2.6-3.9,5.3-4.4c1.9-0.4,5.4-1.2,7.8-1.8c8.7-2.2,16.2,4,12.4,10.3
	c-2.2,3.8-1.8,5.5,3.7,14.1c2.9,4.6,3.4,4.9,6.6,4.7c4.4-0.4,4.7,2.2,0.9,6.8c-3,3.6-6.9,4.1-7.9,1.1c-1.7-5.2-6.3-1.4-7.2,5.8
	c-0.8,6.6,5.5,13.6,8.2,9.1c3.1-5,19.5,1.9,19.5,8.3c0,2.9-3,9.6-4.6,10.2c-0.8,0.3-1.4,1.4-1.4,2.5c0,1.1-1,2.6-2.1,3.5
	c-2.7,1.9-5.9,0.2-5.9-3.1c0-6.8-14.4,1.8-18.5,11.1c-3.9,8.8-4.1,11.2-1.1,14c3.2,3,3.4,5.1,0.4,4.3c-1.5-0.4-3.2,0.3-5.5,2.4
	c-1.8,1.6-3.7,3-4.2,3c-0.4,0-0.9,1.5-1,3.3c-0.1,1.8-0.3,4.1-0.4,5.2c-0.2,1.3,0.9,2.7,3,4c3.8,2.4,4,3.6,1.3,5.3
	c-1.1,0.7-2,1.7-2,2.2s-1.3,3.2-3,5.9c-3.7,6-3.7,6.2,0.1,9.9c3.8,3.7,9.4,5,11.8,2.8c1-0.9,2.4-1.6,3.2-1.6c0.8,0,3-1.3,4.9-3
	c7.8-6.7,10.3-3.8,6.3,7.5c-0.8,2.2-1.7,6.7-2,10s-1.3,7.8-2.1,10c-0.8,2.2-2.1,6.9-2.8,10.5c-0.7,3.6-1.9,9.1-2.6,12.2
	c-1.2,5.3-1.1,6.2,0.8,10.7c1.8,4.3,1.9,5.2,0.7,7.3c-0.7,1.3-1.8,3.4-2.4,4.7c-0.6,1.3-2.4,3.9-3.9,5.7c-1.6,1.8-3.1,4.5-3.4,6.1
	c-2.3,11.7-2.7,15.5-1.6,19.3c1.6,6.1-2.4,7.6-7.6,2.8c-4.4-4-12.4-3-12.4,1.6c0,1.6-2.8,2.9-5.6,2.6c-5.1-0.5-6.4,11.7-1.4,12.9
	c1.9,0.5,2.5,1.3,2.7,3.5c0.1,1.6,0.2,3.6,0.3,4.5c0.4,6.7,12.4,8.3,18.1,2.5c7.3-7.4,16.9-4.4,14,4.4c-1,3-1.1,4.7-0.3,6.4
	c0.6,1.3,0.7,3,0.3,3.7c-2.2,4.3-5.3,21.2-4.2,22.8c2.2,3,2.5,4.4,1.4,6.1c-0.6,1-1.9,5.6-2.8,10.4c-1.2,6.2-2.2,9-3.6,9.7
	c-1,0.5-1.9,1.6-1.9,2.3c0,0.7-0.9,2.5-2,3.9c-1.1,1.4-2,3.4-2,4.5c0,1.9-3.6,4.3-6.6,4.3c-1.8,0-12.5,7.5-13.7,9.6
	c-0.4,0.8-2.7,2.4-5,3.6c-2.3,1.2-6.4,3.8-9.2,5.8s-6.7,4.3-8.7,5c-3.9,1.3-6.5,4.2-8.7,9.8c-0.9,2.2-2,3.3-3.4,3.3
	c-2.9,0-8,3.2-10.3,6.5c-1,1.5-3.1,4.1-4.6,6s-2.8,3.8-2.8,4.5c0,0.7-1,3.4-2.1,6.1c-6.4,14.8,9,27.8,22.3,18.9
	c4.3-2.9,4.3-2.9,7.9-0.8c6.8,3.8,6.8,5.5-0.2,18.6c-9.7,18.2-10.6,22.7-6,28.8c3.3,4.3,3.8,7.8,1.5,10.1c-1.9,1.9-1.9,5.3,0,7.8
	c2.2,2.9,1.9,7.2-0.5,7.9c-1.2,0.3-2.9,2.4-4.1,5.2c-1.1,2.6-3.1,6.2-4.3,8c-1.2,1.8-2.8,5.5-3.5,8.2c-0.7,2.7-1.7,5.7-2.2,6.7
	c-5.4,10.1-9.6,33.7-6.9,38.4c2,3.3,2,3.7,0.4,11.4c-2.1,10.5-0.3,18.4,4.4,18.4c2.7,0,2.7,0,2.9,7c0.1,5.2,0.7,8,2.2,10.5
	c2.5,4,2.7,5.9,0.6,5.9c-0.8,0-2.4-1.7-3.4-3.8c-3.6-7-6.7-7.6-13.5-2.9c-18.6,12.9-28.5,29.2-26.4,43c1.6,10.5,1.6,22.8,0,34.2
	c-1.7,11.7-0.8,24.5,2.1,30.2c2.8,5.4,1.5,14-3.5,24.6c-3,6.3-3.4,7.9-3,13.3C524.3,807.1,519.7,809.6,511.3,802.3L511.3,802.3z"/>
</svg>
