<svg xmlns="http://www.w3.org/2000/svg" viewBox="0 0 801.63 378.5"><defs><style>.cls-1{fill:#231f20;}.cls-2{fill-rule:evenodd;}.cls-3{fill:#ed1c24;}</style></defs><title>logo</title><g id="Layer_2" data-name="Layer 2"><g id="Layer_1-2" data-name="Layer 1"><path class="cls-1" d="M198.46,290.79v10.72h-5.07V290.79l-7.86-15.43h5.55L196,285.91l4.81-10.54h5.55Z"/><path class="cls-1" d="M222.88,301.52l-1.54-4.63H212l-1.58,4.63h-5.33l9.51-26.15h4l9.55,26.15Zm-6.1-18.44-3.31,9.51H220Z"/><path class="cls-1" d="M246.9,298.87a10.16,10.16,0,0,1-14.14,0c-2.64-2.64-2.57-5.91-2.57-10.43s-.07-7.79,2.57-10.43a10.16,10.16,0,0,1,14.14,0c2.64,2.64,2.61,5.91,2.61,10.43S249.54,296.23,246.9,298.87Zm-3.78-17.78a4.24,4.24,0,0,0-3.27-1.4,4.33,4.33,0,0,0-3.31,1.4c-1,1.1-1.25,2.31-1.25,7.35s.26,6.24,1.25,7.35a4.33,4.33,0,0,0,3.31,1.4,4.24,4.24,0,0,0,3.27-1.4c1-1.1,1.29-2.31,1.29-7.35S244.11,282.2,243.12,281.09Z"/><path class="cls-1" d="M278.7,301.52l-10.36-16v16h-5.11V275.37h4.55l10.36,16v-16h5.1v26.15Z"/><path class="cls-1" d="M305.18,298.87a10.16,10.16,0,0,1-14.14,0c-2.64-2.64-2.57-5.91-2.57-10.43S288.4,280.65,291,278a10.16,10.16,0,0,1,14.14,0c2.64,2.64,2.61,5.91,2.61,10.43S307.82,296.23,305.18,298.87Zm-3.78-17.78a4.24,4.24,0,0,0-3.27-1.4,4.33,4.33,0,0,0-3.31,1.4c-1,1.1-1.25,2.31-1.25,7.35s.26,6.24,1.25,7.35a4.33,4.33,0,0,0,3.31,1.4,4.24,4.24,0,0,0,3.27-1.4c1-1.1,1.29-2.31,1.29-7.35S302.39,282.2,301.4,281.09Z"/><path class="cls-1" d="M313,301.52V275.37h5.11v26.15Z"/><path class="cls-1" d="M79.42,184a25.16,25.16,0,0,0-21-22.07,24.69,24.69,0,0,0-26,13.76c-2.18,4.77-2.18,10.08-1.36,15.53,1.77,11.45,6.81,22.35,6.54,34.07a50.09,50.09,0,0,1-5.45,21.8c4.77,3.54,9.13,7.08,13.76,9.81C53,261,61,262.74,68.93,260a18,18,0,0,0,6.95-4.09c.14-.27.41-.27.68-.14a.41.41,0,0,1,0,.54c-5.18,7.49-15.94,10.08-24.53,8.45a36.42,36.42,0,0,1-8.72-2.86c-5.45-2.45-10.36-5.86-15.12-8.72a21.32,21.32,0,0,1-15.81,8.58c-4.5.14-9-1.63-11.17-5.86A10.5,10.5,0,0,1,3.8,243c6.13-5.18,15.53-3.41,22.07.14A42.32,42.32,0,0,0,31.19,225c.54-10.49-4.09-22.35-5.31-33.11-.82-6.13-.54-12.4,2.32-18.12a28.07,28.07,0,0,1,30.79-15c12.54,2.73,21.12,12.4,22.21,24.94.54,6.27-1.36,11.45-4.91,16.49a.4.4,0,1,1-.68-.41C78.74,194.74,80.24,189.84,79.42,184ZM14.56,247.88a8.81,8.81,0,0,0-5.31,1.5c-2.32,2.18.41,4.09,2.86,4.09a13.25,13.25,0,0,0,9.13-4.09A14.85,14.85,0,0,0,14.56,247.88Z"/><path class="cls-1" d="M110.49,227.17c-8-1.23-22.48,6.4-22.89,16.9-.14,3.68,1.36,6.54,3.68,7.77,5.18,2.45,12.67-1.63,16.21-5.86a51.41,51.41,0,0,0,3.82-5.86c1.36-2.18,7.09-3,7.77-.27,1.36,5,5.72,10.08,9.95,12,6.54,2.86,12.4.54,17.71-3.82a.42.42,0,0,1,.54,0v.54c-4.5,7.77-11.85,11.31-19.76,9.4a21,21,0,0,1-10.36-6.81,18.68,18.68,0,0,1-2.45-3.27,22.3,22.3,0,0,1-2.86,3.41c-5.59,5.45-15,9.4-23.3,5.45-6.4-3-7.36-12.94-3-19.62,5.45-8.31,16.35-13.9,25.34-11.72,4.22,1,6.27,6.4,4.91,10.36,0,.27-.27.41-.41.27s-.27-.27-.27-.41C115.8,231.81,114,227.85,110.49,227.17Z"/><path class="cls-1" d="M162.4,230.72c-5.45,2.18-11.85,7.09-11.58,13.49s6.68,7.77,11.85,7.22c6.95-1,11.45-5.59,15.12-11.17a.4.4,0,0,1,.68.14c.82,6.81,1.63,12.81,2.18,19.35.14,2,.27,4.22.41,6.27a53.49,53.49,0,0,1,11-3.13c.14,0,.41.14.41.27s0,.41-.14.41a73.6,73.6,0,0,0-11,6.54c.41,9.54.27,19.49-1.91,28.89-1.36,6.27-4.5,14.31-9.81,18.26-4.22,3.13-9.13,2.18-12.4-1.77-7.36-9-3.82-22.21,1.77-31.07a49.57,49.57,0,0,1,19.62-17.17c0-7.77-.14-15.67-.68-23.44A19.27,19.27,0,0,1,164,258.1c-9.81,2.32-19.49-3.82-18.67-14,.55-8.72,8.18-14.58,15.94-16.49,7.49-2,15-1.23,21.94,1,.27,0,.27.14.27.41s-.14.27-.41.14C176,228.13,168.8,228.26,162.4,230.72Zm14,43.19a56.83,56.83,0,0,0-11.58,14c-3.41,6.13-7.63,17.17-2.86,23.71,1.23,1.91,2.73,2.32,4.63,1.09,4.09-2.59,7.22-10.36,8.58-15,2.32-8.18,2.86-17,3.27-25.48Z"/><path class="cls-1" d="M220.85,259.47c-2.32-.68-3.82-2.73-4.77-4.5a18.26,18.26,0,0,1-1-2.45,13.21,13.21,0,0,1-9.13,5.72c-3.27.14-6.81-.54-9.27-2.59-6.27-5.45-2.73-16.76-4.22-24a8,8,0,0,0-4-5.86.3.3,0,1,1,.27-.54,9.47,9.47,0,0,1,3.41,2.32,16,16,0,0,1,2,3.68c1.77,5.18,1.23,18.26,5.31,20.85,3.27,2,7.9.14,10.49-2.32,3.27-3.13,5-8.45,6.54-12.67,0-.14.27-.41.41-.27,2.32,4.22,3,11.85,3.41,16.9A29,29,0,0,0,220.85,259.47Z"/><path class="cls-1" d="M226.17,245.84a16.5,16.5,0,0,1,5-6.4c4.5-3.68,12.13-4.63,16.9-.82a10.31,10.31,0,0,1,2.59,2.86,24.43,24.43,0,0,1,2.73-2.59A14.74,14.74,0,0,1,267.59,237c4.63,1.77,6.95,4.63,9.81,8.72,4,6,7.36,12,15.53,12.54a19.56,19.56,0,0,0,13.49-4.77,18.34,18.34,0,0,1-13.35,8.17c-9.81,1-15-5.31-20.58-12.26-2.59-3.27-5.72-6.54-9.95-6.68s-6.95,2.86-8.58,6.13c.41,1.77,1.23,4.09.68,5.86a4,4,0,0,1-2.32,2.59c-2.59,1.09-4.77-1-5.59-3.27a12.36,12.36,0,0,1,.54-6.68,12.76,12.76,0,0,0-2.45-4.91c-3.13-2.86-8.45-2.32-11.85-.55a16.58,16.58,0,0,0-8.18,11.58A13.63,13.63,0,0,1,226.17,245.84Z"/><path class="cls-1" d="M331.09,227.17c-8-1.23-22.48,6.4-22.89,16.9-.14,3.68,1.36,6.54,3.68,7.77,5.18,2.45,12.67-1.63,16.21-5.86a51.41,51.41,0,0,0,3.82-5.86c1.36-2.18,7.09-3,7.77-.27,1.36,5,5.72,10.08,9.95,12,6.54,2.86,12.4.54,17.71-3.82a.42.42,0,0,1,.54,0v.54c-4.5,7.77-11.85,11.31-19.76,9.4a21,21,0,0,1-10.36-6.81,18.68,18.68,0,0,1-2.45-3.27,22.27,22.27,0,0,1-2.86,3.41c-5.59,5.45-15,9.4-23.3,5.45-6.4-3-7.36-12.94-3-19.62,5.45-8.31,16.35-13.9,25.34-11.72,4.22,1,6.27,6.4,4.91,10.36,0,.27-.27.41-.41.27s-.27-.27-.27-.41C336.4,231.81,334.63,227.85,331.09,227.17Z"/><path class="cls-1" d="M462.57,229.63c3.54-4.09,8.18-2.18,11.45,1.36,3.82,4.09,5.86,9.27,7.63,14,.82,2.45,1.77,5,2.59,6.81,1.36,0,5.86-4.91,6.68-5.86a35.25,35.25,0,0,0,4.63-7.08c-3.27-1.09-6-3.27-6.68-6.81-.82-4.5,1.91-8.72,6.68-9a8,8,0,0,1,5.86,2c2.86,2.59,3.27,6.81,2.45,10.36l-.14.41a50.45,50.45,0,0,0,12-.41,27.55,27.55,0,0,0,7.22-2.18,21.26,21.26,0,0,1-6.81,4,38.41,38.41,0,0,1-13.63,2.59,37.48,37.48,0,0,1-12.81,16.22c-1.63,1.23-4.77,2.72-6.95,2.18-4.36-1.23-5.18-7.9-6.13-11.58-1.23-4.91-2.59-9.67-5.18-13.63-2-3.13-4.77-5.18-8.18-2.73a4,4,0,0,0-1.91,3A3.89,3.89,0,0,1,462.57,229.63Zm34.34.14a1.62,1.62,0,0,0-2-.14,2.45,2.45,0,0,0-.41,1.5c.14,1.64,1.63,2.45,2.86,3.13C497.59,233,497.86,230.85,496.9,229.76Z"/><path class="cls-1" d="M518.43,249.66c2-3.54,4.77-10.36,5.31-14.58.27-1.91.41-3.82.82-5.72l.14-.41a3,3,0,0,1,3.54-2.32,3.06,3.06,0,0,1,2.32,3.54c-.54,5.86-.54,15.67,3,20.58,4.36,6,13.76,2.18,18.67-1.09a17,17,0,0,1-9.67,8.18c-4.91,1.63-10.08,1-13.76-3-2.59-2.86-4-6.81-4.63-10.63A21.69,21.69,0,0,1,518.43,249.66Zm10.36-40.88c-5.59,0-5.86,7.49-.82,7.49S533.15,208.78,528.79,208.78Z"/><path class="cls-1" d="M561.9,250.61c-.27-.41-.68-1-1-1.36-5.86-9.81-7.63-21.12-6.27-32.29.82-7.22,3.27-16.49,9.81-20.71a9.33,9.33,0,0,1,7-1.5,9.15,9.15,0,0,1,5.72,4.09c4,6,3.82,15,3.13,21.94a45.29,45.29,0,0,1-12.94,27.66c2.59,4.5,6.54,9.13,12.26,8.86,3.13-.14,6.27-1.63,9.13-3.54.27-.14.41,0,.54.14s0,.27,0,.41a17.7,17.7,0,0,1-9.13,6c-7.09,1.77-13.22-2.86-17.17-8.18-4,3-10.76,6.54-15.94,5.45-.14-.14-.27-.27-.27-.41s.14-.27.41-.27C551.95,257.56,558.22,253.74,561.9,250.61Zm14.58-30.11c.27-5.45.14-14.31-3.27-18.8-1.77-2.18-3.54-2.45-5.72-.82-4.63,3.13-5.86,11.58-6.13,16.62-.54,9.67.54,20,4.91,28.75A44.32,44.32,0,0,0,576.48,220.5Z"/><path class="cls-1" d="M599.77,250.61c-.27-.41-.68-1-1-1.36-5.86-9.81-7.63-21.12-6.27-32.29.82-7.22,3.27-16.49,9.81-20.71a9.33,9.33,0,0,1,7-1.5,9.15,9.15,0,0,1,5.72,4.09c4,6,3.82,15,3.13,21.94a45.29,45.29,0,0,1-12.94,27.66c2.59,4.5,6.54,9.13,12.26,8.86,3.13-.14,6.27-1.63,9.13-3.54.27-.14.41,0,.54.14s0,.27,0,.41a17.7,17.7,0,0,1-9.13,6c-7.09,1.77-13.22-2.86-17.17-8.18-4,3-10.76,6.54-15.94,5.45-.14-.14-.27-.27-.27-.41s.14-.27.41-.27C589.83,257.56,596.1,253.74,599.77,250.61Zm14.58-30.11c.27-5.45.14-14.31-3.27-18.8-1.77-2.18-3.54-2.45-5.72-.82-4.63,3.13-5.86,11.58-6.13,16.62-.54,9.67.54,20,4.91,28.75A44.32,44.32,0,0,0,614.35,220.5Z"/><path class="cls-1" d="M652.23,227.17c-8-1.23-22.48,6.4-22.89,16.9-.14,3.68,1.36,6.54,3.68,7.77,5.18,2.45,12.67-1.63,16.21-5.86a51.27,51.27,0,0,0,3.82-5.86c1.36-2.18,7.09-3,7.77-.27,1.36,5,5.72,10.08,9.95,12,6.54,2.86,12.4.54,17.71-3.82a.42.42,0,0,1,.54,0v.54c-4.5,7.77-11.86,11.31-19.76,9.4a21,21,0,0,1-10.36-6.81,18.61,18.61,0,0,1-2.45-3.27,22.36,22.36,0,0,1-2.86,3.41c-5.59,5.45-15,9.4-23.3,5.45-6.4-3-7.36-12.94-3-19.62,5.45-8.31,16.35-13.9,25.34-11.72,4.22,1,6.27,6.4,4.91,10.36,0,.27-.27.41-.41.27s-.27-.27-.27-.41C657.55,231.81,655.78,227.85,652.23,227.17Z"/><path class="cls-1" d="M746.93,185.34c-3.82,6.27-6,12.94-7.77,20-1.77,7.36-3.54,14.85-5.72,22.21-3.27,10.76-8.72,24.39-18.8,30.66-5.72,3.54-14.17,4.22-19.76.14-4.5-3.27-6.68-9.95-4.36-15.12a5,5,0,0,1,2.18-2.59.6.6,0,0,1,1,.27c.27.27.14.68,0,1a3.22,3.22,0,0,0-1,2A9.46,9.46,0,0,0,702,254.56c12.81.14,19.49-20,23.16-29.84,2.73-6.81,5-14,7.08-21.12a74.67,74.67,0,0,1,9.67-21.53c10.49-15.12,33.66-28.34,51.64-17.85a18.88,18.88,0,0,1,8,8.58.75.75,0,0,1-.41,1,.84.84,0,0,1-1-.27,17.72,17.72,0,0,0-7.77-7.09C775.68,158.36,755.65,171.17,746.93,185.34Z"/><path class="cls-2" d="M333.14,285.5c4.48-.37,7.35,1.53,10,4.13a38.38,38.38,0,0,0,5.62,4.8c3.08,2,6.66,2.3,10.26,2.18,1.28,0,2.57,0,4.18,0l-3.06,5c.31.14.6.3.92.42,3.71,1.37,4.46,4.7,4.13,7.61-.05.41-.9,1-1.41,1.06a45.7,45.7,0,0,1-7.67.05c-6.28-.75-12.53-1.81-18.79-2.69-3.56-.5-7.14-.89-10.71-1.31a10,10,0,0,0-9.82,4.3c-3.18,4.44-6.3,8.92-9.22,13.52-1,1.57-1.31,3.58-2.05,5.71a11.81,11.81,0,0,1,1.5-6.7c2.79-4.62,5.65-9.22,8.65-13.71A11,11,0,0,1,326,304.55c4.82.33,9.64.79,14.45,1.28,5.43.55,10.85,1.21,16.28,1.79,1.7.18,3.42.23,5.32.36-.41-2-1.46-2.83-2.92-3-2.09-.29-4.2-.4-6.3-.58l-1.71-.16,5.06-3.82c-4.17-.43-7.91-1.29-11-3.76a57.91,57.91,0,0,1-4.91-4.45c-2-2-4.16-3.19-7-2.74a3.88,3.88,0,0,1-.46,0c-3.16,0-3.39-.19-3.22-3.36.14-2.76,1.66-4.94,3.09-7.13a42.42,42.42,0,0,1,3.16-4.19,7.61,7.61,0,0,1,2.31-2c5.35-2.55,9.56-6.53,13.92-10.41,3.76-3.34,7.84-6.32,11.78-9.47,2.37-1.9,4.75-3.79,7.1-5.72,6.15-5,13.26-6.85,21.07-6.21a43.87,43.87,0,0,1,12.7,3.06c2.31.92,3.87,2.46,3.73,4.92-.51,8.55,4.47,14.51,9.39,20.5a29.17,29.17,0,0,0,17.91,10.71,47.16,47.16,0,0,0,11.66.15c1.83-.15,3.62-1.36,5.33-2.27a13.32,13.32,0,0,1,6.5-1.67c5,0,9.91.12,14.85,0a56.05,56.05,0,0,0,6.86-1c-1.49-2.13-2.78-4-4.08-5.82s-3.12-2.45-5.11-2.92Q465.32,265,459,263.48a5.44,5.44,0,0,1-.78-.32c0-.16,0-.32,0-.47l17.82-.77c-2.49-2.41-5.54-3.17-8.83-3.43a40.72,40.72,0,0,0-18.12,3,18.31,18.31,0,0,1-9.7,1.09,11.29,11.29,0,0,1-8.29-5.8C428.86,253,428,248.86,427,244.7c-1.7-7.33-4.79-13.9-10.57-19-2.5-2.19-4.23-2.92-9.87-4.26,1.94-.61,5.82.26,8.37,1.79,6.12,3.68,9.93,9.22,12.41,15.71,1.5,3.92,2.43,8.07,3.8,12a17.41,17.41,0,0,0,2.64,5.19c3,3.79,7.5,4.69,12.73,2.86-.12-1.84-.22-3.73-.38-5.61-.7-8.47-1.57-16.93-2.07-25.41-.58-9.88-.92-19.77-1.2-29.66a71.53,71.53,0,0,0-2.7-18.28,52.47,52.47,0,0,1-1.87-14.17c-.06-3.44.08-6.92-1.26-10.21-.64-1.57-1.17-3.24-3.28-3.44-.25,0-.53-.43-.67-.72a56.67,56.67,0,0,0-16.46-20.94,16.68,16.68,0,0,0-10.11-3.34c-5.66-.16-11.33,0-17,0h-1.68c0-.11,0-.22-.07-.33a3,3,0,0,1,.84-.3c6-.25,12-.59,18.07-.66,5.87-.07,10.74,2.41,15,6.39a63.07,63.07,0,0,1,13.22,16.79c.11.22.26.52.46.59,3.5,1.22,4.53,4.34,5.06,7.37.75,4.29.69,8.71,1.29,13a72.31,72.31,0,0,0,2.13,9.76,86.24,86.24,0,0,1,3.43,22.83c.08,9.49.33,19,.34,28.47,0,8.86-.19,17.71-.3,26.57,0,.3,0,.6,0,1,2.52-.82,4.93-1.7,7.39-2.37a34.08,34.08,0,0,1,17-.5c4.46,1,7.82,3.87,10.6,7.33.89,1.12,1.1,2.79,1.77,4.63l-6.91-2.14c1.28,1.88,2.6,3.88,4,5.84,1.07,1.53,2.14,3,4.38,3,.68,0,1.38.58,2.07.9,0,.15,0,.29,0,.44-1,.25-2,.58-3,.75-1.57.27-3.19.29-4.71.69-4.44,1.17-8.92.52-13.39.42a75.53,75.53,0,0,0-8.35,0,12,12,0,0,0-5.23,1.59c-4.58,2.92-9.56,3-14.63,2.5-11.27-1.14-19.4-7.38-25.84-16.24-2.33-3.21-4.82-6.36-5.65-10.36-.42-2.06-.46-4.19-.81-6.27a9.91,9.91,0,0,0-1-2.31l-.48.14a2.85,2.85,0,0,0-.18.8c.33,5.19-.94,10.11-2.4,15a118.2,118.2,0,0,0-3.93,21c-1.43,13.27-.86,26.57-.92,39.87q-.08,17.17-.31,34.35c0,3-.48,6.06-.51,9.1a20,20,0,0,0,.73,4.86,3.89,3.89,0,0,0,4,3.21c3.55,0,7.11-.11,10.66-.16a14.64,14.64,0,0,1,1.83.16c1.67.19,2.15,0,5.11-1.71,3,2.12,6.86,2.23,8.81.24,1.89.94,1.89.94,3.53-.56.79.77,1.55,1.54,2.83.61.44-.32,1.38.17,2.05,0,3.22-.6,5.21-2.63,5.16-6-.08-4.1-.62-8.19-1-12.28-.26-2.86-.8-5.72-.81-8.58,0-9.23.3-18.46.27-27.69,0-7.73-.52-15.46-.5-23.19a92.59,92.59,0,0,1,1.18-10.87,2.31,2.31,0,0,1,.84-1.46,39.45,39.45,0,0,0-.81,4.83,80,80,0,0,0-.2,11.11c.91,10.08,1.14,20.17,1,30.28-.06,6-.13,12,.23,17.94.25,4.24,1.41,8.42,1.81,12.66a41.42,41.42,0,0,1-.1,9.5c-.54,3.85-3.36,6.05-8.21,6.6-2.64.29-5.27.81-7.92,1s-5.2,1.09-7.74-.26c-.17-.09-.44-.21-.56-.14-2.17,1.23-4.53,1.06-6.89,1.08-3.55,0-7.11.37-10.66.28-4.08-.11-6.64-2.1-7.52-6.47a58.4,58.4,0,0,1-.67-10.75c-.08-6.08,0-12.16.05-18.25.08-13.67,0-27.33.32-41a131,131,0,0,1,4-30.41c1.21-4.56,2.89-9,4.34-13.5.5-1.55,1-3.12,1.53-5-1.79.16-3.25.3-4.72.42-4.53.36-7.72-1.65-9.79-5.6l-.07-.14c-2.55-4.25-1.18-4.24-6.86-2.74-4.15,1.09-7.38,3.75-10.62,6.42-3.7,3-7.6,5.83-11.3,8.87-2.34,1.93-4.46,4.12-6.68,6.19A61,61,0,0,1,340.36,276a10.43,10.43,0,0,0-3.08,3.14C335.88,281.06,334.67,283.12,333.14,285.5Zm70-33.66c.14-1.49.35-3,.38-4.55a1.54,1.54,0,0,0-.82-1.17,28.62,28.62,0,0,0-5-1.44c-3-.45-5.93-.66-8.84-1C391.63,250,397,251.33,403.11,251.84Z"/><path class="cls-2" d="M288.41,53.33a29.19,29.19,0,0,0,3.4-1.81c2.27-1.61,4.33-3.58,7.2-4a34.52,34.52,0,0,1,5.23-.44c8.82,0,17.64-.28,26.45,0a77.57,77.57,0,0,1,30.85,7.34c4.49,2.13,8.94,4.3,12.23,8.18,2.43,2.86,4.75,5.83,7.15,8.72,1.67,2,3.4,4,5.09,6a2.7,2.7,0,0,1,.69,1.58c-.66-.57-1.35-1.1-2-1.71-4.12-4-8.3-8-12.29-12.17-3-3.12-6.7-5.07-10.49-7a80.5,80.5,0,0,0-24.2-8c-4.73-.69-9.52-1.11-14.3-1.33-6.59-.3-13.2-.17-19.8-.46a16.36,16.36,0,0,0-11.32,3.64c-1.11.87-2.7,1.1-4.05,1.66-.46.19-.87.47-1.48.81a23.68,23.68,0,0,1,5.9-9.19,23.93,23.93,0,0,1,15.77-6.55c6-.34,12.05-1,18.06-.8,7,.18,14,1.05,20.94,1.63l1,.08a52.52,52.52,0,0,1-3-6.59,40.86,40.86,0,0,1-1.7-8.57,56.14,56.14,0,0,1,0-11.1c.61-5,3.56-9,7.68-11.8C352.94.53,355,.33,356.8.12a57.9,57.9,0,0,1,6.33-.05c-.28,1.28-.39,2.23-.69,3.11-2.17,6.52-.45,15.89,5.8,20.16a80.94,80.94,0,0,0,13.21,7A97.31,97.31,0,0,1,394.2,36.9a43,43,0,0,1,7.52,6.77A6.49,6.49,0,0,1,403,47.2,24.36,24.36,0,0,1,401.46,59c.18-1.74.46-3.48.53-5.23a52.66,52.66,0,0,0-.05-5.57c-.19-3-2.26-4.87-4.41-6.41a53.75,53.75,0,0,0-8.2-4.83c-5.89-2.81-11.94-5.29-17.83-8.11s-10.4-6.87-12.16-13.4c-1.09-4-.88-8.14-.27-12.39-3.27-.37-6.16.19-8.52,2.74a17.24,17.24,0,0,0-5,12.37c0,5.36-.4,10.71,1.42,15.9.09.24.16.49.26.73,1.94,5,1.94,5,8.65,6.32,1.2.23,2.4.43,4,.71-6.28-7.65-7.78-15.76-3.61-24.62-.19,1-.3,2.12-.58,3.14-1.68,6-.41,11.5,3.06,16.56a21.83,21.83,0,0,0,11.14,8.88c4.65,1.57,9.23,3.38,13.8,5.2a27.72,27.72,0,0,1,3.7,2.22c4.57,2.74,9.19,5.39,13.7,8.21,7.09,4.44,10.92,10.95,12.12,19.18a60.54,60.54,0,0,1-.89,22.4,15.57,15.57,0,0,1-7,10.12A57.88,57.88,0,0,1,398,117a17.9,17.9,0,0,0-7.06,5.82,21.61,21.61,0,0,1-2.94,3,29.52,29.52,0,0,1,13.43-11.67,14.87,14.87,0,0,0,8.1-7.74,32.75,32.75,0,0,0,1.88-7.12,52.76,52.76,0,0,0-1.27-22.65c-1.6-5.83-5.34-10.06-10.38-13.13-3.95-2.4-8.22-4.28-12.07-6.81a54.57,54.57,0,0,0-17.81-7.51,22.6,22.6,0,0,1-3.8-1.27c-6.7-2.88-13.81-4-21-4.81-5.88-.68-11.78-1.5-17.68-1.64a192.63,192.63,0,0,0-23.92.54c-6.85.7-11.89,5-15.37,10.92Z"/><path class="cls-2" d="M372.78,67.8c-2.07-.83-4.1-1.82-6.23-2.46-7.3-2.2-14.74-4.23-22.35-4.28-11.43-.08-22.89-.61-34.3.83l-5.51.69c-4.75.62-8.61,3.08-12.28,6.11,3.36-.16,6.72-.4,10.09-.45,7.06-.11,14.13-.38,21.17-.09,6.58.28,12.81,2.34,18.75,5.22,1.7.82,3.62,1.16,5.37,1.86A39.92,39.92,0,0,1,359,82c1.8,1.56,2.28,3.81,2.83,6A9.73,9.73,0,0,0,363.7,92c1.86,2.18,3.85,4.31,6.76,5.27a6.42,6.42,0,0,1-2.17-.5c-3.49-2.34-7.24-4.45-7.9-9.28-.4-2.94-2.47-4.68-4.9-6.19-4.38-2.72-9.21-4.23-14.06-5.75-3.77-1.19-7.43-2.76-11.26-3.69a58,58,0,0,0-16.29-1.15c-5.87.27-11.75.4-17.61.86-3.88.31-7.73,1.09-11.59,1.66a3.06,3.06,0,0,1-1.61-.08c1.68-1.81,3.23-3.77,5.06-5.42,6-5.39,13-8.56,21.24-8.68,6.13-.09,12.26-.52,18.39-.54a130.94,130.94,0,0,1,17.13.61A131,131,0,0,1,362.33,63c3.24.88,6.27,2.52,9.38,3.84a8.41,8.41,0,0,1,1.2.76Z"/><path class="cls-2" d="M367.4,212.06c-2.79-5.26-5.58-10.2-8-15.3s-4.85-10.22-6.8-15.51c-2.23-6-2.18-12.42-1.95-18.77.22-5.87.14-11.76.67-17.6a164.79,164.79,0,0,1,2.56-17.37c1-5.06,3.91-9.28,7.31-13.06a75.2,75.2,0,0,0,9.65-13.74c.65-1.16,1.27-1.5,2.93-1.62-2.62,1.11-2.94,3.83-4.26,5.86-2.62,4-5.18,8-8,11.86A34.33,34.33,0,0,0,355,134.22c-1.27,11.94-.89,23.89-.24,35.83.33,6.14,2.24,12,4.41,17.74,1.69,4.47,3.41,8.92,5.12,13.39,1,2.58,2,5.15,2.88,7.78A13.32,13.32,0,0,1,367.4,212.06Z"/><path class="cls-2" d="M408.58,295c-.23,2.4-.55,4.79-.68,7.2-.42,7.92-1,15.84-1.11,23.77a91.55,91.55,0,0,1-1.94,19.16,5.07,5.07,0,0,1-.23.73c0,.07-.17.11-.54.33-.4-2.09-.86-4.07-1.13-6.07-1-7.43-.38-14.82.79-22.16,1.07-6.65,2.31-13.27,3.51-19.89.19-1.08.58-2.12.88-3.18Z"/><path class="cls-2" d="M423.59,288.37c-.54,2.8-1,5.61-1.61,8.38-1.81,8.17-3.83,16.3-5.48,24.51a94.07,94.07,0,0,0-1.74,22.9c.11,2.34.55,4.66.83,7l-.41.15a58.08,58.08,0,0,1-2.06-5.5c-2.2-8.24-1.46-16.44.76-24.54,2.69-9.8,5.55-19.56,8.33-29.34.35-1.2.62-2.43.93-3.64Z"/><path class="cls-2" d="M406.12,155a74,74,0,0,1,1.75,7.7c.58,4.7,1.05,9.42,1.22,14.15a145,145,0,0,0,2,19.81c.82,4.76,1.17,9.6,1.83,14.39.24,1.69.8,3.34,1,5.19a13.31,13.31,0,0,1-1.2-1.4c-2.19-3.36-2.8-7.26-3.6-11.07-1.93-9.19-2.15-18.49-1.91-27.83.18-6.85.12-13.7-1.49-20.43a1.13,1.13,0,0,1,.09-.43Z"/><path class="cls-2" d="M433,290.28c-.54,2.61-1.12,5.21-1.62,7.82a202.13,202.13,0,0,0-3.1,29.31c-.24,5.34-1,10.66-1.56,16a1.58,1.58,0,0,1-.52.94c-2.88-18.67,1.1-36.5,6.26-54.19Z"/><path class="cls-2" d="M373.49,218.43c4.5-.89,9-2.79,13.74.14-2.2,1.54-4.42,1.61-6.75,1.44s-4.63-.17-6.94-.14a4.18,4.18,0,0,0-3.86,2.13,39.36,39.36,0,0,0-2.54,4.74,5.16,5.16,0,0,0,1.27,6.08c-1.86-.49-2.91-2.11-3-4.42-.08-4.09,1.8-7.4,4.14-10.58a9.3,9.3,0,0,1,6.75-4.15,22.69,22.69,0,0,1,3.71.29l-6.75,4.13Z"/><path class="cls-2" d="M425.22,175.08c.31,2.1.62,4.2.91,6.3a69.43,69.43,0,0,0,4.47,16.93A26.37,26.37,0,0,1,433,208.76a28.71,28.71,0,0,1-.35,2.89C427.15,199.83,424,187.91,425.22,175.08Z"/><path class="cls-2" d="M409,216.27c-4.61,1.41-8.19,4-11.61,6.8-3.62,3-4.65,7.34-6.08,11.51.19-4.29.54-8.52,3.37-12a44.85,44.85,0,0,1,4.06-4.44C401.62,215.46,405.88,214.65,409,216.27Z"/><path class="cls-2" d="M399.84,215.9c-5.08,4.16-11.25,7-14.32,13.27l-.35-.18a5.38,5.38,0,0,1,.16-1A25.16,25.16,0,0,1,393,217.13C394.83,215.54,398,215,399.84,215.9Z"/><path d="M396.22,76c-1.7-.2-2.58-1.27-2.56-3.15,0-1.36,1.38-3.46,2.94-3.49a14.78,14.78,0,0,1,2.37.25c.13,0,.25.19.36.3a3.6,3.6,0,0,1-.63,5.3A11.69,11.69,0,0,1,396.22,76ZM397.31,72c.66,0,1.09-.35,1.09-.87a1.25,1.25,0,0,0-1.21-1,1,1,0,0,0-.75,1.06C396.46,71.73,396.73,72,397.31,72Z"/><path d="M391.48,71.95c-.13-1.69,1.11-2.53,2-3.69l-1.89.85a6.7,6.7,0,0,1,2.21-1.48,2.5,2.5,0,0,1,2.37.16A10.54,10.54,0,0,0,391.48,71.95Z"/><path d="M399.57,77.3a4.83,4.83,0,0,1-3.68-.13l4-.33c-.29,2-1.57,3.06-3.16,2.46A4.18,4.18,0,0,0,399.57,77.3Z"/><path d="M392.28,72.19c.16,3.24.16,3.24,2.53,5.38C392.62,77.51,391.28,74.81,392.28,72.19Z"/><path d="M400.87,74.3l-.67-4.19A3.33,3.33,0,0,1,400.87,74.3Z"/><path d="M401.77,75.08V71.24A3.24,3.24,0,0,1,401.77,75.08Z"/><path d="M393,74.57a4.35,4.35,0,0,1,.28-3.56v3.55Z"/><path class="cls-2" d="M373.84,212.64c-5.08,4.16-11.25,7-14.32,13.27l-.35-.18a5.5,5.5,0,0,1,.16-1A25.18,25.18,0,0,1,367,213.88C368.83,212.28,372,211.74,373.84,212.64Z"/><ellipse class="cls-3" cx="302.86" cy="53.98" rx="9.13" ry="6.49"/><path class="cls-1" d="M302.86,61.47c-5.58,0-10.12-3.36-10.12-7.49s4.54-7.49,10.12-7.49S313,49.85,313,54,308.44,61.47,302.86,61.47Zm0-13c-4.48,0-8.12,2.46-8.12,5.49s3.64,5.49,8.12,5.49S311,57,311,54,307.34,48.49,302.86,48.49Z"/></g></g></svg>