<svg xmlns="http://www.w3.org/2000/svg" viewBox="0 0 750.08 160.97"><defs><style>.cls-1{fill:#fff;}</style></defs><title>title</title><g id="Layer_2" data-name="Layer 2"><g id="Layer_1-2" data-name="Layer 1"><path class="cls-1" d="M79.42,25.83a25.16,25.16,0,0,0-21-22.07,24.69,24.69,0,0,0-26,13.76c-2.18,4.77-2.18,10.08-1.36,15.53,1.77,11.45,6.81,22.35,6.54,34.07a50.09,50.09,0,0,1-5.45,21.8c4.77,3.54,9.13,7.08,13.76,9.81,7.09,4.09,15.13,5.86,23,3.13a18,18,0,0,0,6.95-4.09c.14-.27.41-.27.68-.14a.41.41,0,0,1,0,.54c-5.18,7.49-15.94,10.08-24.53,8.45a36.42,36.42,0,0,1-8.72-2.86c-5.45-2.45-10.36-5.86-15.12-8.72a21.32,21.32,0,0,1-15.81,8.59c-4.5.14-9-1.63-11.17-5.86A10.5,10.5,0,0,1,3.8,84.83c6.13-5.18,15.53-3.41,22.07.14a42.32,42.32,0,0,0,5.31-18.12c.54-10.49-4.09-22.35-5.31-33.11-.82-6.13-.54-12.4,2.32-18.12A28.07,28.07,0,0,1,59,.63C71.52,3.35,80.1,13,81.19,25.56,81.74,31.83,79.83,37,76.29,42a.4.4,0,1,1-.68-.41C78.74,36.6,80.24,31.69,79.42,25.83ZM14.56,89.74a8.81,8.81,0,0,0-5.31,1.5c-2.32,2.18.41,4.09,2.86,4.09a13.25,13.25,0,0,0,9.13-4.09A14.85,14.85,0,0,0,14.56,89.74Z"/><path class="cls-1" d="M110.49,69c-8-1.23-22.48,6.4-22.89,16.9-.14,3.68,1.36,6.54,3.68,7.77,5.18,2.45,12.67-1.63,16.21-5.86A51.41,51.41,0,0,0,111.31,82c1.36-2.18,7.09-3,7.77-.27,1.36,5,5.72,10.08,9.95,12,6.54,2.86,12.4.54,17.71-3.82a.42.42,0,0,1,.54,0v.54c-4.5,7.77-11.85,11.31-19.76,9.4A21,21,0,0,1,117.16,93a18.68,18.68,0,0,1-2.45-3.27,22.3,22.3,0,0,1-2.86,3.41c-5.59,5.45-15,9.4-23.3,5.45-6.4-3-7.36-12.94-3-19.62C91,70.66,101.9,65.08,110.9,67.26c4.22,1,6.27,6.4,4.91,10.36,0,.27-.27.41-.41.27s-.27-.27-.27-.41C115.8,73.66,114,69.71,110.49,69Z"/><path class="cls-1" d="M162.4,72.57c-5.45,2.18-11.85,7.08-11.58,13.49s6.68,7.77,11.85,7.22c6.95-1,11.45-5.59,15.12-11.17a.4.4,0,0,1,.68.14c.82,6.81,1.63,12.81,2.18,19.35.14,2,.27,4.22.41,6.27a53.49,53.49,0,0,1,11-3.13c.14,0,.41.14.41.27s0,.41-.14.41a73.6,73.6,0,0,0-11,6.54c.41,9.54.27,19.49-1.91,28.89-1.36,6.27-4.5,14.31-9.81,18.26-4.22,3.13-9.13,2.18-12.4-1.77-7.36-9-3.82-22.21,1.77-31.07a49.57,49.57,0,0,1,19.62-17.17c0-7.77-.14-15.67-.68-23.44A19.27,19.27,0,0,1,164,100c-9.81,2.32-19.49-3.82-18.67-14,.55-8.72,8.18-14.58,15.94-16.49,7.49-2,15-1.23,21.94,1,.27,0,.27.14.27.41s-.14.27-.41.14C176,70,168.8,70.12,162.4,72.57Zm14,43.19a56.83,56.83,0,0,0-11.58,14c-3.41,6.13-7.63,17.17-2.86,23.71,1.23,1.91,2.73,2.32,4.63,1.09,4.09-2.59,7.22-10.36,8.58-15,2.32-8.18,2.86-17,3.27-25.48Z"/><path class="cls-1" d="M220.85,101.32c-2.32-.68-3.82-2.73-4.77-4.5a18.26,18.26,0,0,1-1-2.45A13.21,13.21,0,0,1,206,100.1c-3.27.14-6.81-.54-9.27-2.59-6.27-5.45-2.73-16.76-4.22-24a8,8,0,0,0-4-5.86.3.3,0,1,1,.27-.54,9.47,9.47,0,0,1,3.41,2.32,16,16,0,0,1,2,3.68c1.77,5.18,1.23,18.26,5.31,20.85,3.27,2,7.9.14,10.49-2.32,3.27-3.13,5-8.45,6.54-12.67,0-.14.27-.41.41-.27,2.32,4.22,3,11.85,3.41,16.9A29,29,0,0,0,220.85,101.32Z"/><path class="cls-1" d="M226.17,87.7a16.5,16.5,0,0,1,5-6.4c4.5-3.68,12.13-4.63,16.9-.82a10.31,10.31,0,0,1,2.59,2.86,24.43,24.43,0,0,1,2.73-2.59,14.74,14.74,0,0,1,14.17-1.91c4.63,1.77,6.95,4.63,9.81,8.72,4,6,7.36,12,15.53,12.54a19.56,19.56,0,0,0,13.49-4.77,18.34,18.34,0,0,1-13.35,8.17c-9.81,1-15-5.31-20.58-12.26-2.59-3.27-5.72-6.54-9.95-6.68s-6.95,2.86-8.58,6.13c.41,1.77,1.23,4.09.68,5.86a4,4,0,0,1-2.32,2.59c-2.59,1.09-4.77-1-5.59-3.27a12.36,12.36,0,0,1,.54-6.68,12.76,12.76,0,0,0-2.45-4.91c-3.13-2.86-8.45-2.32-11.85-.55a16.58,16.58,0,0,0-8.18,11.58A13.63,13.63,0,0,1,226.17,87.7Z"/><path class="cls-1" d="M331.09,69c-8-1.23-22.48,6.4-22.89,16.9-.14,3.68,1.36,6.54,3.68,7.77,5.18,2.45,12.67-1.63,16.21-5.86A51.41,51.41,0,0,0,331.9,82c1.36-2.18,7.09-3,7.77-.27,1.36,5,5.72,10.08,9.95,12,6.54,2.86,12.4.54,17.71-3.82a.42.42,0,0,1,.54,0v.54c-4.5,7.77-11.85,11.31-19.76,9.4A21,21,0,0,1,337.76,93a18.68,18.68,0,0,1-2.45-3.27,22.27,22.27,0,0,1-2.86,3.41c-5.59,5.45-15,9.4-23.3,5.45-6.4-3-7.36-12.94-3-19.62,5.45-8.31,16.35-13.9,25.34-11.72,4.22,1,6.27,6.4,4.91,10.36,0,.27-.27.41-.41.27s-.27-.27-.27-.41C336.4,73.66,334.63,69.71,331.09,69Z"/><path class="cls-1" d="M411,69.4c3.54-4.09,8.18-2.18,11.45,1.36,3.82,4.09,5.86,9.27,7.63,14,.82,2.45,1.77,5,2.59,6.81,1.36,0,5.86-4.91,6.68-5.86A35.25,35.25,0,0,0,444,78.66c-3.27-1.09-6-3.27-6.68-6.81-.82-4.5,1.91-8.72,6.68-9a8,8,0,0,1,5.86,2c2.86,2.59,3.27,6.81,2.45,10.36l-.14.41a50.45,50.45,0,0,0,12-.41,27.55,27.55,0,0,0,7.22-2.18,21.26,21.26,0,0,1-6.81,4,38.41,38.41,0,0,1-13.63,2.59,37.48,37.48,0,0,1-12.81,16.22c-1.63,1.23-4.77,2.72-6.95,2.18-4.36-1.23-5.18-7.9-6.13-11.58-1.23-4.91-2.59-9.67-5.18-13.63-2-3.13-4.77-5.18-8.18-2.73a4,4,0,0,0-1.91,3A3.89,3.89,0,0,1,411,69.4Zm34.34.14a1.62,1.62,0,0,0-2-.14,2.45,2.45,0,0,0-.41,1.5c.14,1.64,1.63,2.45,2.86,3.13C446,72.8,446.31,70.62,445.36,69.53Z"/><path class="cls-1" d="M466.88,89.43c2-3.54,4.77-10.36,5.31-14.58.27-1.91.41-3.82.82-5.72l.14-.41a3,3,0,0,1,3.54-2.32A3.06,3.06,0,0,1,479,69.94c-.54,5.86-.54,15.67,3,20.58,4.36,6,13.76,2.18,18.67-1.09A17,17,0,0,1,491,97.6c-4.91,1.63-10.08,1-13.76-3-2.59-2.86-4-6.81-4.63-10.63A21.69,21.69,0,0,1,466.88,89.43Zm10.36-40.88c-5.59,0-5.86,7.49-.82,7.49S481.6,48.55,477.24,48.55Z"/><path class="cls-1" d="M510.35,90.38c-.27-.41-.68-1-1-1.36-5.86-9.81-7.63-21.12-6.27-32.29.82-7.22,3.27-16.49,9.81-20.71a9.33,9.33,0,0,1,7-1.5,9.15,9.15,0,0,1,5.72,4.09c4,6,3.82,15,3.13,21.94A45.29,45.29,0,0,1,515.8,88.2c2.59,4.5,6.54,9.13,12.26,8.86,3.13-.14,6.27-1.63,9.13-3.54.27-.14.41,0,.54.14s0,.27,0,.41a17.7,17.7,0,0,1-9.13,6c-7.09,1.77-13.22-2.86-17.17-8.18-4,3-10.76,6.54-15.94,5.45-.14-.14-.27-.27-.27-.41s.14-.27.41-.27C500.4,97.33,506.67,93.51,510.35,90.38Zm14.58-30.11c.27-5.45.14-14.31-3.27-18.8-1.77-2.18-3.54-2.45-5.72-.82-4.63,3.13-5.86,11.58-6.13,16.62-.54,9.67.54,20,4.91,28.75A44.32,44.32,0,0,0,524.93,60.27Z"/><path class="cls-1" d="M548.23,90.38c-.27-.41-.68-1-1-1.36-5.86-9.81-7.63-21.12-6.27-32.29.82-7.22,3.27-16.49,9.81-20.71a9.33,9.33,0,0,1,7-1.5,9.15,9.15,0,0,1,5.72,4.09c4,6,3.82,15,3.13,21.94A45.29,45.29,0,0,1,553.68,88.2c2.59,4.5,6.54,9.13,12.26,8.86,3.13-.14,6.27-1.63,9.13-3.54.27-.14.41,0,.54.14s0,.27,0,.41a17.7,17.7,0,0,1-9.13,6c-7.09,1.77-13.22-2.86-17.17-8.18-4,3-10.76,6.54-15.94,5.45-.14-.14-.27-.27-.27-.41s.14-.27.41-.27C538.28,97.33,544.55,93.51,548.23,90.38Zm14.58-30.11c.27-5.45.14-14.31-3.27-18.8-1.77-2.18-3.54-2.45-5.72-.82-4.63,3.13-5.86,11.58-6.13,16.62-.54,9.67.54,20,4.91,28.75A44.32,44.32,0,0,0,562.81,60.27Z"/><path class="cls-1" d="M600.69,66.94c-8-1.23-22.48,6.4-22.89,16.9-.14,3.68,1.36,6.54,3.68,7.77,5.18,2.45,12.67-1.63,16.21-5.86a51.27,51.27,0,0,0,3.82-5.86c1.36-2.18,7.09-3,7.77-.27,1.36,5,5.72,10.08,9.95,12,6.54,2.86,12.4.54,17.71-3.82a.42.42,0,0,1,.54,0v.54c-4.5,7.77-11.86,11.31-19.76,9.4a21,21,0,0,1-10.36-6.81,18.61,18.61,0,0,1-2.45-3.27A22.36,22.36,0,0,1,602,91.06c-5.59,5.45-15,9.4-23.3,5.45-6.4-3-7.36-12.94-3-19.62C581.2,68.58,592.1,63,601.1,65.17c4.22,1,6.27,6.4,4.91,10.36,0,.27-.27.41-.41.27s-.27-.27-.27-.41C606,71.58,604.23,67.63,600.69,66.94Z"/><path class="cls-1" d="M695.39,25.11c-3.82,6.27-6,12.94-7.77,20-1.77,7.36-3.54,14.85-5.72,22.21-3.27,10.76-8.72,24.39-18.8,30.66-5.72,3.54-14.17,4.22-19.76.14-4.5-3.27-6.68-9.95-4.36-15.12a5,5,0,0,1,2.18-2.59.6.6,0,0,1,1,.27c.27.27.14.68,0,1a3.22,3.22,0,0,0-1,2,9.46,9.46,0,0,0,9.27,10.63c12.81.14,19.49-20,23.16-29.84,2.73-6.81,5-14,7.08-21.12a74.67,74.67,0,0,1,9.67-21.53C700.84,6.72,724-6.5,742,4a18.88,18.88,0,0,1,8,8.58.75.75,0,0,1-.41,1,.84.84,0,0,1-1-.27,17.72,17.72,0,0,0-7.77-7.09C724.14-1.87,704.11,10.94,695.39,25.11Z"/></g></g></svg>